<svg width="32" height="32" viewBox="0 0 32 32" fill="none" xmlns="http://www.w3.org/2000/svg">
<path d="M5.9248 14.2612V20.6929C5.9248 23.0482 5.9248 23.0482 8.15069 24.5494L14.2719 28.0823C15.1907 28.6129 16.6919 28.6129 17.6107 28.0823L23.7319 24.5494C25.9577 23.0482 25.9577 23.0482 25.9577 20.6929V14.2612C25.9577 11.9059 25.9577 11.9059 23.7319 10.4047L17.6107 6.87176C16.6919 6.34117 15.1907 6.34117 14.2719 6.87176L8.15069 10.4047C5.9248 11.9059 5.9248 11.9059 5.9248 14.2612Z" stroke="white" stroke-width="1.94118" stroke-linecap="round" stroke-linejoin="round"/>
<path d="M23.059 9.87414V6.47061C23.059 3.88237 21.7649 2.58826 19.1767 2.58826H12.7061C10.1178 2.58826 8.82373 3.88237 8.82373 6.47061V9.78355" stroke="white" stroke-width="1.94118" stroke-linecap="round" stroke-linejoin="round"/>
<path d="M16.7565 14.2224L17.4941 15.3741C17.6106 15.5553 17.8694 15.7365 18.0635 15.7882L19.3835 16.1247C20.1988 16.3318 20.4188 17.0306 19.8883 17.6777L19.0212 18.7259C18.8918 18.8941 18.7883 19.1918 18.8012 19.3988L18.8788 20.7577C18.9306 21.5988 18.3353 22.0259 17.5588 21.7153L16.2906 21.2106C16.0965 21.1329 15.773 21.1329 15.5788 21.2106L14.3106 21.7153C13.5341 22.0259 12.9388 21.5859 12.9906 20.7577L13.0683 19.3988C13.0812 19.1918 12.9777 18.8812 12.8483 18.7259L11.9812 17.6777C11.4506 17.0306 11.6706 16.3318 12.4859 16.1247L13.8059 15.7882C14.013 15.7365 14.2718 15.5424 14.3753 15.3741L15.113 14.2224C15.5788 13.5235 16.3035 13.5235 16.7565 14.2224Z" stroke="white" stroke-width="1.94118" stroke-linecap="round" stroke-linejoin="round"/>
</svg>
