<svg width="32" height="46" viewBox="0 0 32 46" fill="none" xmlns="http://www.w3.org/2000/svg">
<path d="M12.6472 25.9891V24.0479H6.17661C5.46485 24.0479 4.81779 23.7632 4.35191 23.2844C3.87308 22.8185 3.58838 22.1715 3.58838 21.4597C3.58838 20.1268 4.62367 19.0138 5.93073 18.8844C6.00838 18.8715 6.08603 18.8715 6.17661 18.8715H25.5884C25.679 18.8715 25.7566 18.8715 25.8343 18.8844C26.4554 18.9362 26.999 19.2079 27.4131 19.635C27.9437 20.1526 28.2284 20.8903 28.1637 21.6926C28.0472 23.0515 26.8178 24.0479 25.446 24.0479H19.1178V25.9891C19.1178 27.775 17.6684 29.2244 15.8825 29.2244C14.0966 29.2244 12.6472 27.775 12.6472 25.9891Z" stroke="black" stroke-width="1.94118" stroke-linecap="round" stroke-linejoin="round"/>
<path d="M26.4553 7.61269L25.8341 18.8845C25.7565 18.8715 25.6788 18.8715 25.5882 18.8715H6.17645C6.08586 18.8715 6.00822 18.8715 5.93057 18.8845L5.30939 7.61269C5.07645 5.3221 6.87527 3.3421 9.16586 3.3421H22.5988C24.8894 3.3421 26.6882 5.3221 26.4553 7.61269Z" stroke="black" stroke-width="1.94118" stroke-linecap="round" stroke-linejoin="round"/>
<path d="M10.6931 3.3421V9.81269" stroke="black" stroke-width="1.94118" stroke-linecap="round" stroke-linejoin="round"/>
<path d="M15.8823 3.3421V5.93034" stroke="black" stroke-width="1.94118" stroke-linecap="round" stroke-linejoin="round"/>
</svg>
