<svg width="32" height="32" viewBox="0 0 32 32" fill="none" xmlns="http://www.w3.org/2000/svg">
<path d="M12.2942 25.2353V23.2941H5.82359C5.11182 23.2941 4.46476 23.0094 3.99888 22.5306C3.52006 22.0647 3.23535 21.4177 3.23535 20.7059C3.23535 19.373 4.27065 18.26 5.5777 18.1306C5.65535 18.1177 5.733 18.1177 5.82359 18.1177H25.2354C25.3259 18.1177 25.4036 18.1177 25.4812 18.1306C26.1024 18.1824 26.6459 18.4541 27.0601 18.8812C27.5906 19.3989 27.8753 20.1365 27.8106 20.9389C27.6942 22.2977 26.4648 23.2941 25.093 23.2941H18.7648V25.2353C18.7648 27.0212 17.3154 28.4706 15.5295 28.4706C13.7436 28.4706 12.2942 27.0212 12.2942 25.2353Z" stroke="#404040" stroke-width="1.94118" stroke-linecap="round" stroke-linejoin="round"/>
<path d="M26.1022 6.85885L25.4811 18.1306C25.4034 18.1177 25.3258 18.1177 25.2352 18.1177H5.82342C5.73284 18.1177 5.65519 18.1177 5.57754 18.1306L4.95637 6.85885C4.72342 4.56826 6.52225 2.58826 8.81284 2.58826H22.2458C24.5364 2.58826 26.3352 4.56826 26.1022 6.85885Z" stroke="#404040" stroke-width="1.94118" stroke-linecap="round" stroke-linejoin="round"/>
<path d="M10.3401 2.58826V9.05884" stroke="#404040" stroke-width="1.94118" stroke-linecap="round" stroke-linejoin="round"/>
<path d="M15.5293 2.58826V5.17649" stroke="#404040" stroke-width="1.94118" stroke-linecap="round" stroke-linejoin="round"/>
</svg>
