<svg width="15" height="15" viewBox="0 0 15 15" fill="none" xmlns="http://www.w3.org/2000/svg">
<path d="M7.49007 3.28125C5.20667 3.28125 2.86438 4.60283 1.02044 7.246C0.967805 7.32227 0.938962 7.41244 0.937554 7.5051C0.936146 7.59776 0.962236 7.68876 1.01253 7.7666C2.42932 9.98438 4.74026 11.7188 7.49007 11.7188C10.21 11.7188 12.5684 9.9791 13.9878 7.75635C14.0369 7.68003 14.0631 7.59119 14.0631 7.50044C14.0631 7.40968 14.0369 7.32085 13.9878 7.24453C12.5652 5.04727 10.1895 3.28125 7.49007 3.28125Z" stroke="#3F3F3F" stroke-linecap="round" stroke-linejoin="round"/>
<path d="M7.5 9.84375C8.79442 9.84375 9.84375 8.79442 9.84375 7.5C9.84375 6.20558 8.79442 5.15625 7.5 5.15625C6.20558 5.15625 5.15625 6.20558 5.15625 7.5C5.15625 8.79442 6.20558 9.84375 7.5 9.84375Z" stroke="#3F3F3F" stroke-miterlimit="10"/>
</svg>
