<svg width="50" height="50" viewBox="0 0 50 50" fill="none" xmlns="http://www.w3.org/2000/svg">
<path fill-rule="evenodd" clip-rule="evenodd" d="M25 50C13.2149 50 7.32232 50 3.66117 46.3387C-2.98023e-07 42.6777 0 36.785 0 25C0 13.2149 -2.98023e-07 7.32232 3.66117 3.66117C7.32232 -2.98023e-07 13.2149 0 25 0C36.785 0 42.6777 -2.98023e-07 46.3387 3.66117C50 7.32232 50 13.2149 50 25C50 36.785 50 42.6777 46.3387 46.3387C42.6777 50 36.785 50 25 50ZM25 15.625C26.0355 15.625 26.875 16.4645 26.875 17.5V23.125H32.5C33.5355 23.125 34.375 23.9645 34.375 25C34.375 26.0355 33.5355 26.875 32.5 26.875H26.875V32.5C26.875 33.5355 26.0355 34.375 25 34.375C23.9645 34.375 23.125 33.5355 23.125 32.5V26.875H17.5C16.4645 26.875 15.625 26.0355 15.625 25C15.625 23.9645 16.4645 23.125 17.5 23.125H23.125V17.5C23.125 16.4645 23.9645 15.625 25 15.625Z" fill="#E84D5B"/>
</svg>
