<svg width="32" height="32" viewBox="0 0 32 32" fill="none" xmlns="http://www.w3.org/2000/svg">
<path d="M23.4755 27.9788C22.3367 28.3153 20.9908 28.4706 19.412 28.4706H11.6473C10.0684 28.4706 8.72256 28.3153 7.58374 27.9788C7.86845 24.6141 11.3237 21.9611 15.5296 21.9611C19.7355 21.9611 23.1908 24.6141 23.4755 27.9788Z" stroke="#404040" stroke-width="1.94118" stroke-linecap="round" stroke-linejoin="round"/>
<path d="M19.4117 2.58826H11.647C5.17637 2.58826 2.58813 5.17649 2.58813 11.6471V19.4118C2.58813 24.3035 4.06343 26.9824 7.58343 27.9788C7.86814 24.6141 11.3234 21.9612 15.5293 21.9612C19.7352 21.9612 23.1905 24.6141 23.4752 27.9788C26.9952 26.9824 28.4705 24.3035 28.4705 19.4118V11.6471C28.4705 5.17649 25.8823 2.58826 19.4117 2.58826ZM15.5293 18.3376C12.967 18.3376 10.8964 16.2542 10.8964 13.6918C10.8964 11.1295 12.967 9.05884 15.5293 9.05884C18.0917 9.05884 20.1623 11.1295 20.1623 13.6918C20.1623 16.2542 18.0917 18.3376 15.5293 18.3376Z" stroke="#404040" stroke-width="1.94118" stroke-linecap="round" stroke-linejoin="round"/>
<path d="M20.1624 13.6918C20.1624 16.2542 18.0918 18.3376 15.5294 18.3376C12.9671 18.3376 10.8965 16.2542 10.8965 13.6918C10.8965 11.1294 12.9671 9.05884 15.5294 9.05884C18.0918 9.05884 20.1624 11.1294 20.1624 13.6918Z" stroke="#404040" stroke-width="1.94118" stroke-linecap="round" stroke-linejoin="round"/>
</svg>
